HIERARCHY
ROOT Hips
{
	OFFSET 0.00 0.00 0.00
	CHANNELS 6 Xposition Yposition Zposition Xrotation Yrotation Zrotation
	JOINT LeftUpLeg
	{
		OFFSET 3.64953 0.00000 0.00000
		CHANNELS 3 Xrotation Yrotation Zrotation
		JOINT LeftLeg
		{
			OFFSET 0.00000 -15.70580 0.00000
			CHANNELS 3 Xrotation Yrotation Zrotation
			JOINT LeftFoot
			{
				OFFSET 0.00000 -15.41867 0.00000
				CHANNELS 3 Xrotation Yrotation Zrotation
				JOINT LeftToeBase
				{
					OFFSET 0.00000 -1.53543 5.73033
					CHANNELS 3 Xrotation Yrotation Zrotation
					End Site
					{
						OFFSET 0.00000 0.00000 2.95275
					}
				}
			}
		}
	}
	JOINT RightUpLeg
	{
		OFFSET -3.64953 0.00000 0.00000
		CHANNELS 3 Xrotation Yrotation Zrotation
		JOINT RightLeg
		{
			OFFSET 0.00000 -15.70580 0.00000
			CHANNELS 3 Xrotation Yrotation Zrotation
			JOINT RightFoot
			{
				OFFSET 0.00000 -15.41867 0.00000
				CHANNELS 3 Xrotation Yrotation Zrotation
				JOINT RightToeBase
				{
					OFFSET 0.00000 -1.53543 5.73033
					CHANNELS 3 Xrotation Yrotation Zrotation
					End Site
					{
						OFFSET 0.00000 0.00000 2.95275
					}
				}
			}
		}
	}
	JOINT Spine
	{
		OFFSET 0.00000 0.03937 0.00000
		CHANNELS 3 Xrotation Yrotation Zrotation
		JOINT Spine1
		{
			OFFSET 0.00000 10.24829 0.00000
			CHANNELS 3 Xrotation Yrotation Zrotation
			JOINT Neck
			{
				OFFSET 0.00000 7.82687 0.00000
				CHANNELS 3 Xrotation Yrotation Zrotation
				JOINT Head
				{
					OFFSET 0.00000 6.90715 0.00000
					CHANNELS 3 Xrotation Yrotation Zrotation
					End Site
					{
						OFFSET 0.00000 4.52755 0.00000
					}
				}
			}
			JOINT LeftShoulder
			{
				OFFSET 0.00000 7.82687 0.00000
				CHANNELS 3 Xrotation Yrotation Zrotation
				JOINT LeftArm
				{
					OFFSET 6.71018 -0.00002 0.00000
					CHANNELS 3 Xrotation Yrotation Zrotation
					JOINT LeftForeArm
					{
						OFFSET 10.94419 -0.00004 0.00000
						CHANNELS 3 Xrotation Yrotation Zrotation
						JOINT LeftHand
						{
							OFFSET 8.52010 -0.00003 0.00000
							CHANNELS 3 Xrotation Yrotation Zrotation
							JOINT LeftHandThumb
							{
								OFFSET 0.00000 0.00000 0.00000
								CHANNELS 3 Xrotation Yrotation Zrotation
								End Site
								{
									OFFSET 0.00000 0.00000 3.93700
								}
							}
							JOINT L_Wrist_End
							{
								OFFSET 3.93700 -0.00001 0.00000
								CHANNELS 3 Xrotation Yrotation Zrotation
							}
						}
					}
				}
			}
			JOINT RightShoulder
			{
				OFFSET 0.00000 7.82687 0.00000
				CHANNELS 3 Xrotation Yrotation Zrotation
				JOINT RightArm
				{
					OFFSET -6.71018 -0.00002 0.00000
					CHANNELS 3 Xrotation Yrotation Zrotation
					JOINT RightForeArm
					{
						OFFSET -10.94419 -0.00004 0.00000
						CHANNELS 3 Xrotation Yrotation Zrotation
						JOINT RightHand
						{
							OFFSET -8.52010 -0.00003 0.00000
							CHANNELS 3 Xrotation Yrotation Zrotation
							JOINT RightHandThumb
							{
								OFFSET 0.00000 0.00000 0.00000
								CHANNELS 3 Xrotation Yrotation Zrotation
								End Site
								{
									OFFSET 0.00000 0.00000 3.93700
								}
							}
							JOINT R_Wrist_End
							{
								OFFSET -5.39369 -0.00002 0.00000
								CHANNELS 3 Xrotation Yrotation Zrotation
							}
						}
					}
				}
			}
		}
	}
}
MOTION
Frames: 10
Frame Time: 0.0333333
0 32.3918 0 12.6926 2.2137 3.3941 -16.6905 6.4856 7.0087 9.1662 0 0 -10.2827 -4.5678 -19.937 -10.3399 0 0 -26.3732 3.9885 -3.1704 28.7164 0 0 -28.0922 1.2237 -10.3255 8.1816 0 0 1.1742 3.4193 0.3134 11.408 0.6168 0.1428 -0.1276 -3.3836 -3.9285 3.7409 -4.4119 6.3065 19.2203 12.2779 -0.7364 -12.0068 -43.4894 -73.0858 -0.0001 -28.218 0 -14.2661 -2.4929 -9.8624 0 0 0 0 0 0 11.7835 -17.0456 -0.4665 -6.3932 44.3227 71.8296 -0.0002 40.2824 0.0001 -23.3475 -1.8327 4.8503 0 0 0 0 0 0
0 33.4039 0 169.762 -35.8416 166.7364 -2.0692 -2.2633 -1.5799 25.2247 0 0 -10.0987 -11.0399 2.229 -7.7129 0 0 -26.5186 -3.471 -2.3581 45.1289 0 0 -21.8239 -4.4246 -9.4499 3.1629 0 0 -3.2971 -0.3131 -0.3135 9.4298 -2.0091 2.2019 -2.5503 3.6406 -4.5297 -5.5598 6.5313 4.9007 16.4105 12.6095 1.6173 -31.9685 -52.6967 -83.1882 -179.9994 -70.5605 -179.9992 -7.9151 -1.6017 -11.2433 0 0 0 0 0 0 15.092 -21.811 0.6603 10.5701 37.8447 58.0889 -179.998 83.8414 179.9978 -24.6265 4.3162 -2.1848 0 0 0 0 0 0
0 33.4039 0 169.762 -35.8416 166.7364 -2.0692 -2.2633 -1.5799 25.2247 0 0 -10.0987 -11.0399 2.229 -7.7129 0 0 -26.5186 -3.471 -2.3581 45.1289 0 0 -21.8239 -4.4246 -9.4499 3.1629 0 0 -3.2971 -0.3131 -0.3135 9.4298 -2.0091 2.2019 -2.5503 3.6406 -4.5297 -5.5598 6.5313 4.9007 16.4105 12.6095 1.6173 -31.9685 -52.6967 -83.1882 -179.9994 -70.5605 -179.9992 -7.9151 -1.6017 -11.2433 0 0 0 0 0 0 15.092 -21.811 0.6603 10.5701 37.8447 58.0889 -179.998 83.8414 179.9978 -24.6265 4.3162 -2.1848 0 0 0 0 0 0
0 29.9577 0 7.3869 46.8324 -9.5385 -20.6444 -2.9569 -10.8316 45.8747 0 0 -29.5436 -8.5186 9.2654 4.7693 0 0 -12.9546 -6.6191 -8.4147 75.7201 0 0 -17.2444 -5.1122 -0.4228 3.4531 0 0 -3.3315 4.5346 -0.6229 12.0331 2.5562 -0.793 -3.0762 2.1315 -5.494 -8.2082 5.6425 2.6874 20.36 14.1921 -4.2971 -14.894 -45.6689 -66.9997 -179.9992 -75.6257 -179.9989 -5.2942 -0.2912 -11.4805 0 0 0 0 0 0 14.5846 -18.6902 2.7453 -8.6772 44.8487 67.462 -0.0149 89.1889 0.0147 -14.9335 6.5432 -3.4981 0 0 0 0 0 0
0 29.9268 0 7.2229 46.6469 -9.4285 -21.7186 -2.6667 -10.7895 46.3577 0 0 -29.2583 -8.5727 9.0878 5.1308 0 0 -11.3444 -7.289 -8.2632 75.106 0 0 -15.9872 -4.962 1.9061 3.5647 0 0 -3.2223 4.5422 -0.7089 12.0117 2.5873 -0.7228 -3.2874 2.0735 -5.4669 -8.1829 5.4202 2.6727 20.5023 14.2663 -4.3171 -13.2789 -44.3533 -66.2933 -179.9992 -75.5235 -179.9989 -5.1478 -0.1639 -11.3178 0 0 0 0 0 0 14.4746 -18.6802 2.8168 -10.4361 45.5933 68.27 -0.0264 89.5427 0.0262 -14.3584 6.2542 -3.5406 0 0 0 0 0 0
0 33.4295 0 79.3852 -83.34 76.4337 4 -0.7644 0.0959 33.9142 0 0 -0.4116 -8.5664 -5.9727 -7.7492 0 0 -22.5248 -1.1789 1.5153 25.4748 0 0 -23.8162 -2.1634 -0.0481 0.1416 0 0 -4.5683 -0.2322 -0.4151 11.1676 -2.2341 0.2205 -1.7141 7.1839 -6.1442 -1.383 8.0249 3.4947 14.1093 14.3174 2.7907 -40.789 -57.97 -89.1523 -179.9995 -67.3505 -179.9992 -1.6929 4.0963 -19.0154 0 0 0 0 0 0 14.4727 -21.5839 -1.4666 18.0984 30.1559 61.6759 -179.9905 88.734 179.9903 -22.5104 3.2419 0.5186 0 0 0 0 0 0
0 33.4295 0 79.3852 -83.34 76.4337 4 -0.7644 0.0959 33.9142 0 0 -0.4116 -8.5664 -5.9727 -7.7492 0 0 -22.5248 -1.1789 1.5153 25.4748 0 0 -23.8162 -2.1634 -0.0481 0.1416 0 0 -4.5683 -0.2322 -0.4151 11.1676 -2.2341 0.2205 -1.7141 7.1839 -6.1442 -1.383 8.0249 3.4947 14.1093 14.3174 2.7907 -40.789 -57.97 -89.1523 -179.9995 -67.3505 -179.9992 -1.6929 4.0963 -19.0154 0 0 0 0 0 0 14.4727 -21.5839 -1.4666 18.0984 30.1559 61.6759 -179.9905 88.734 179.9903 -22.5104 3.2419 0.5186 0 0 0 0 0 0
0 32.4026 0 12.5138 2.5248 3.2949 -16.6428 5.9207 7.0539 9.5109 0 0 -10.0832 -4.458 -19.1367 -10.7712 0 0 -26.061 3.9167 -3.0741 28.6932 0 0 -27.974 1.0568 -10.4907 8.1232 0 0 1.1396 3.3563 0.4885 11.4864 0.5419 0.0789 -0.0407 -3.3576 -3.9988 4.0155 -4.4156 6.3866 19.0615 12.2525 -0.5322 -12.2982 -43.2089 -73.6027 -0.0001 -27.995 0 -14.3822 -2.4692 -9.6189 0 0 0 0 0 0 11.6496 -17.0422 -0.7191 -6.2229 43.9869 72.0517 -0.0002 40.3447 0.0001 -24.6562 -1.9458 5.8655 0 0 0 0 0 0
0 32.3779 0 11.8937 3.7506 3.5992 -17.1697 2.8972 6.5869 12.4997 0 0 -10.755 -2.8084 -17.4623 -10.9093 0 0 -25.4701 4.3692 -3.1705 29.7685 0 0 -28.2765 -0.1439 -11.1105 7.8135 0 0 1.0562 3.1015 0.7677 11.8378 0.1638 -0.4437 0.111 -3.2502 -4.2725 5.0851 -4.3036 6.6386 19.1186 11.7 -0.7369 -13.4321 -42.1924 -74.349 -0.0001 -26.775 0 -15.2623 -3.2899 -8.1444 0 0 0 0 0 0 11.7079 -16.8938 -1.0091 -5.7273 42.9378 71.7113 -0.0002 39.5907 0.0001 -30.8541 -1.5497 10.4418 0 0 0 0 0 0
0 29.9864 0 4.2247 10.8213 -5.6436 -17.884 -1.496 -8.0858 47.762 0 0 -34.3387 -4.8564 9.8758 4.4685 0 0 -14.2222 -5.0563 -8.4348 76.483 0 0 -14.7157 -4.9327 -1.9706 2.0009 0 0 -2.7444 3.2297 -1.1375 12.028 1.0646 -1.5619 -2.3191 2.179 -5.2315 -5.6675 4.605 3.5178 19.9372 13.2214 -3.5609 -17.1023 -44.0221 -66.5161 -179.999 -78.6229 -179.9987 -10.7062 -1.3565 -12.4178 0 0 0 0 0 0 14.3232 -19.8149 1.7925 -5.6918 42.4405 67.3698 -179.9949 87.6176 179.9947 -17.3741 3.4573 -1.0952 0 0 0 0 0 0
